<svg width="36" height="46" viewBox="0 0 36 46" fill="none" xmlns="http://www.w3.org/2000/svg">
<path d="M23.7 35.99H22.2V37.49H23.7V35.99ZM23.7 0.499996H25.2V-1H23.7V0.499996ZM14.6 0.499996V-1H14.3378L14.0911 -0.911039L14.6 0.499996ZM2.705 4.79L2.1961 3.37896L0.878954 3.854L1.26232 5.20069L2.705 4.79ZM5.24 13.695L3.79732 14.1057L4.20404 15.5344L5.63665 15.1416L5.24 13.695ZM13.3 11.485H14.8V9.51834L12.9034 10.0384L13.3 11.485ZM13.3 35.99V37.49H14.8V35.99H13.3ZM0.625 35.99V34.49H-0.875V35.99H0.625ZM0.625 46H-0.875V47.5H0.625V46ZM35.725 46V47.5H37.225V46H35.725ZM35.725 35.99H37.225V34.49H35.725V35.99ZM25.2 35.99V0.499996H22.2V35.99H25.2ZM23.7 -1H14.6V2H23.7V-1ZM14.0911 -0.911039L2.1961 3.37896L3.2139 6.20104L15.1089 1.91103L14.0911 -0.911039ZM1.26232 5.20069L3.79732 14.1057L6.68268 13.2843L4.14768 4.37931L1.26232 5.20069ZM5.63665 15.1416L13.6967 12.9316L12.9034 10.0384L4.84335 12.2484L5.63665 15.1416ZM11.8 11.485V35.99H14.8V11.485H11.8ZM13.3 34.49H0.625V37.49H13.3V34.49ZM-0.875 35.99V46H2.125V35.99H-0.875ZM0.625 47.5H35.725V44.5H0.625V47.5ZM37.225 46V35.99H34.225V46H37.225ZM35.725 34.49H23.7V37.49H35.725V34.49Z" fill="url(#paint0_linear_757_1684)"/>
<defs>
<linearGradient id="paint0_linear_757_1684" x1="-1" y1="24" x2="37" y2="24" gradientUnits="userSpaceOnUse">
<stop stop-color="#DA4533"/>
<stop offset="1" stop-color="#DA4533" stop-opacity="0"/>
</linearGradient>
</defs>
</svg>
