<svg width="36" height="47" viewBox="0 0 36 47" fill="none" xmlns="http://www.w3.org/2000/svg">
<path d="M24.935 18.245L23.7978 17.2668L22.3352 18.9673L24.4654 19.6696L24.935 18.245ZM32.93 8.95L34.0672 9.92815L34.43 9.50635V8.95H32.93ZM32.93 0.499997H34.43V-1H32.93V0.499997ZM1.73 0.499997V-1H0.23V0.499997H1.73ZM1.73 10.25H0.23V11.75H1.73V10.25ZM19.8 10.25L20.934 11.2318L23.0827 8.75H19.8V10.25ZM11.415 19.935L10.281 18.9532L9.5276 19.8234L10.1731 20.7763L11.415 19.935ZM15.51 25.98L14.2681 26.8213L14.7144 27.48H15.51V25.98ZM9.27 30.985L10.6745 30.4583L10.0519 28.7979L8.5177 29.6873L9.27 30.985ZM0.3 36.185L-0.452296 34.8873L-1.59867 35.5519L-1.08061 36.7715L0.3 36.185ZM26.0722 19.2231L34.0672 9.92815L31.7928 7.97185L23.7978 17.2668L26.0722 19.2231ZM34.43 8.95V0.499997H31.43V8.95H34.43ZM32.93 -1H1.73V2H32.93V-1ZM0.23 0.499997V10.25H3.23V0.499997H0.23ZM1.73 11.75H19.8V8.75H1.73V11.75ZM18.666 9.26818L10.281 18.9532L12.549 20.9168L20.934 11.2318L18.666 9.26818ZM10.1731 20.7763L14.2681 26.8213L16.7519 25.1387L12.6569 19.0937L10.1731 20.7763ZM15.51 27.48H17.525V24.48H15.51V27.48ZM17.525 27.48C19.7876 27.48 21.1908 28.0032 22.0018 28.6677C22.773 29.2997 23.175 30.1939 23.175 31.375H26.175C26.175 29.4361 25.4721 27.6328 23.9032 26.3473C22.3742 25.0943 20.2024 24.48 17.525 24.48V27.48ZM23.175 31.375C23.175 32.5561 22.773 33.4503 22.0018 34.0823C21.1908 34.7468 19.7876 35.27 17.525 35.27V38.27C20.2024 38.27 22.3742 37.6557 23.9032 36.4027C25.4721 35.1172 26.175 33.3139 26.175 31.375H23.175ZM17.525 35.27C15.6397 35.27 14.242 34.8031 13.1855 34.0313C12.1206 33.2534 11.2815 32.0771 10.6745 30.4583L7.86551 31.5117C8.62347 33.5329 9.76686 35.2491 11.4158 36.4537C13.073 37.6644 15.1203 38.27 17.525 38.27V35.27ZM8.5177 29.6873L-0.452296 34.8873L1.0523 37.4827L10.0223 32.2827L8.5177 29.6873ZM-1.08061 36.7715C0.594593 40.7151 3.14086 43.657 6.45705 45.5967C9.75681 47.5267 13.7242 48.41 18.175 48.41V45.41C14.1108 45.41 10.7007 44.6033 7.9717 43.0071C5.25914 41.4205 3.12541 38.9999 1.68061 35.5985L-1.08061 36.7715ZM18.175 48.41C23.1695 48.41 27.7669 46.9457 31.14 44.0313C34.5401 41.0936 36.575 36.7839 36.575 31.375H33.575C33.575 35.9761 31.8724 39.4339 29.1787 41.7612C26.4581 44.1118 22.6055 45.41 18.175 45.41V48.41ZM36.575 31.375C36.575 23.8262 31.7888 18.9251 25.4046 16.8204L24.4654 19.6696C29.9112 21.4649 33.575 25.4038 33.575 31.375H36.575Z" fill="url(#paint0_linear_4228_657)"/>
<defs>
<linearGradient id="paint0_linear_4228_657" x1="-1" y1="24" x2="37" y2="24" gradientUnits="userSpaceOnUse">
<stop stop-color="#DA4533"/>
<stop offset="1" stop-color="#DA4533" stop-opacity="0"/>
</linearGradient>
</defs>
</svg>
