<svg width="35" height="47" viewBox="0 0 35 47" fill="none" xmlns="http://www.w3.org/2000/svg">
<path d="M0.95 47H-0.55V48.5H0.95V47ZM34.1 47V48.5H35.6V47H34.1ZM34.1 36.99H35.6V35.49H34.1V36.99ZM17.59 36.99L16.576 35.8847L13.7362 38.49H17.59V36.99ZM24.675 30.49L23.6614 29.3843L23.661 29.3847L24.675 30.49ZM0.95 10.86L-0.396684 10.1994L-1.01054 11.4507L0.192405 12.1546L0.95 10.86ZM9.725 15.995L8.96741 17.2896L10.2701 18.0519L11.0243 16.7446L9.725 15.995ZM17.59 24.185L16.5775 23.0783L16.5756 23.08L17.59 24.185ZM0.95 39.46L-0.0643685 38.355L-0.55 38.8008V39.46H0.95ZM0.95 48.5H34.1V45.5H0.95V48.5ZM35.6 47V36.99H32.6V47H35.6ZM34.1 35.49H17.59V38.49H34.1V35.49ZM18.604 38.0953L25.689 31.5953L23.661 29.3847L16.576 35.8847L18.604 38.0953ZM25.6886 31.5957C31.203 26.5409 34.95 21.8032 34.95 15.215H31.95C31.95 20.4568 29.067 24.4291 23.6614 29.3843L25.6886 31.5957ZM34.95 15.215C34.95 6.03606 27.7446 -0.910003 17.395 -0.910003V2.09C26.2854 2.09 31.95 7.88394 31.95 15.215H34.95ZM17.395 -0.910003C9.89903 -0.910003 3.24884 2.76809 -0.396684 10.1994L2.29668 11.5206C5.41116 5.1719 10.981 2.09 17.395 2.09V-0.910003ZM0.192405 12.1546L8.96741 17.2896L10.4826 14.7004L1.70759 9.56537L0.192405 12.1546ZM11.0243 16.7446C11.9499 15.1402 12.8498 14.022 13.8253 13.3018C14.7649 12.6081 15.8467 12.23 17.265 12.23V9.23C15.2383 9.23 13.5251 9.79444 12.0435 10.8882C10.5977 11.9555 9.45013 13.4698 8.42572 15.2454L11.0243 16.7446ZM17.265 12.23C19.0517 12.23 20.0717 12.8114 20.6572 13.4543C21.2733 14.1309 21.55 15.0329 21.55 15.865H24.55C24.55 14.4221 24.0792 12.7566 22.8753 11.4345C21.6408 10.0786 19.7683 9.23 17.265 9.23V12.23ZM21.55 15.865C21.55 16.8975 21.1291 17.9744 20.2485 19.1971C19.3618 20.4281 18.0956 21.6894 16.5775 23.0783L18.6025 25.2917C20.1394 23.8856 21.6032 22.4494 22.6828 20.9504C23.7684 19.4431 24.55 17.7575 24.55 15.865H21.55ZM16.5756 23.08L-0.0643685 38.355L1.96437 40.565L18.6044 25.29L16.5756 23.08ZM-0.55 39.46V47H2.45V39.46H-0.55Z" fill="url(#paint0_linear_4228_553)"/>
<defs>
<linearGradient id="paint0_linear_4228_553" x1="-1" y1="25" x2="37" y2="25" gradientUnits="userSpaceOnUse">
<stop stop-color="#DA4533"/>
<stop offset="1" stop-color="#DA4533" stop-opacity="0"/>
</linearGradient>
</defs>
</svg>
