<svg width="322" height="119" viewBox="0 0 322 119" fill="none" xmlns="http://www.w3.org/2000/svg">
<path fill-rule="evenodd" clip-rule="evenodd" d="M29.5256 40.0535V48.107L27.9428 46.603C25.233 44.0281 22.5107 43.0558 18.0791 43.08C14.9434 43.0971 12.9281 43.5735 10.1628 44.9517C3.88347 48.0811 0 54.7868 0 62.5C0 70.2132 3.88347 76.9189 10.1628 80.0483C12.9281 81.4265 14.9434 81.9029 18.0791 81.92C22.5107 81.9442 25.233 80.9719 27.9428 78.397L29.5256 76.893V78.9535V81.014H34.2326H38.9395V56.507V32H34.2326H29.5256V40.0535ZM170.521 37.993V43.986H167.419H164.316V47.4105V50.8351H167.41H170.504L170.566 62.4465C170.627 73.9751 170.631 74.0665 171.117 75.2678C172.068 77.6199 173.932 79.4818 176.265 80.4096C177.374 80.8507 177.895 80.8972 182.556 80.9693L187.637 81.0481V76.9643V72.8807L184.802 72.8798C181.573 72.879 180.924 72.6543 180.29 71.3174C179.967 70.6361 179.936 69.5666 179.986 60.7509L180.042 50.9421L183.519 50.8832L186.995 50.8244V47.4052V43.986H183.465H179.935V37.993V32H175.228H170.521V37.993ZM59.3721 43.1457C51.1274 44.2409 44.3549 50.5128 42.7008 58.5849C42.268 60.6974 42.268 64.3026 42.7008 66.4151C44.2306 73.8798 50.0255 79.7333 57.7167 81.5821C60.0249 82.1369 64.0095 82.0403 66.5969 81.3668C68.9412 80.7565 71.6366 79.491 73.3527 78.1948C75.8857 76.2815 78.3187 73.2893 79.4835 70.6543L80.0133 69.4561H74.9879C71.9829 69.4561 69.9628 69.5373 69.9628 69.658C69.9628 69.7691 69.4373 70.4276 68.795 71.1216C66.749 73.3325 64.2316 74.3111 61.1081 74.1097C56.6286 73.821 53.6895 71.1997 52.1105 66.0851L51.9618 65.6035H66.2043H80.4465L80.4457 63.4097C80.4416 53.0165 74.851 45.2274 66.1153 43.4434C64.1602 43.044 61.14 42.9107 59.3721 43.1457ZM102.484 43.1131C99.3521 43.5549 96.9149 44.6948 94.8648 46.6762L93.4977 47.9976V45.9919V43.986H88.7907H84.0837V68.493V93H88.7907H93.4977V85.0011V77.0024L94.8648 78.3238C97.4543 80.8263 100.473 81.9445 104.623 81.9387C111.952 81.9284 117.961 78.0616 121.081 71.3491C122.47 68.3601 122.907 66.2409 122.907 62.5C122.907 59.8327 122.823 58.9635 122.409 57.3632C120.888 51.4821 117.031 46.7357 111.946 44.4857C109.429 43.3723 105.098 42.7441 102.484 43.1131ZM142.921 43.1262C140.811 43.3916 138.934 43.9344 137 44.838C134.764 45.8832 133.543 46.7218 131.718 48.4676C127.783 52.2321 125.737 57.0312 125.737 62.5C125.737 67.9688 127.783 72.7679 131.718 76.5324C133.545 78.2806 134.76 79.1147 137.027 80.1769C142.107 82.5587 148.228 82.5587 153.308 80.1769C158.403 77.7887 162.051 73.6234 163.74 68.2659C166.284 60.194 163.141 51.2009 156.075 46.3374C152.541 43.9053 147.164 42.5926 142.921 43.1262ZM312.96 43.9907C310.381 44.6422 308.169 46.71 307.424 49.165C306.525 52.124 307.341 55.4981 309.407 57.3647C312.04 59.7452 316.262 60.0752 318.971 58.1123C320.608 56.9261 322 54.1254 322 52.0191V51.0491H317.935H313.87V52.3333V53.6175H316.33C317.684 53.6175 318.791 53.6813 318.791 53.7592C318.791 53.8371 318.546 54.3189 318.247 54.8298C317.538 56.0396 316.429 56.614 314.802 56.614C311.841 56.614 309.774 54.1764 310.114 51.0868C310.559 47.0473 314.637 45.2154 317.762 47.6511C318.462 48.1965 318.724 48.2667 320.062 48.2667C320.893 48.2667 321.572 48.1849 321.572 48.0847C321.572 47.757 320.38 46.2487 319.534 45.5069C319.078 45.1073 318.283 44.5936 317.768 44.3652C316.686 43.8864 314.153 43.6891 312.96 43.9907ZM205.181 51.7071V59.2139L209.514 59.1448C213.565 59.0799 213.913 59.0425 214.877 58.568C216.15 57.9411 216.917 56.8392 217.088 55.3932C217.239 54.1195 216.926 53.0302 216.177 52.2216L215.638 51.6403L216.07 51.1812C217.964 49.1641 217.262 45.7862 214.702 44.6045C213.961 44.2621 213.268 44.2088 209.514 44.2047L205.181 44.2V51.7071ZM219.944 51.6912V59.1825H221.442H222.94V56.293V53.4035H224.087H225.234L227.433 56.293L229.632 59.1825H231.42C232.404 59.1825 233.208 59.1101 233.207 59.0219C233.205 58.9337 232.251 57.6161 231.086 56.0944L228.968 53.3273L229.974 52.8609C232.399 51.737 233.262 49.0034 231.972 46.5328C231.49 45.6092 231.159 45.2783 230.236 44.7959L229.095 44.2H224.52H219.944V51.6912ZM240.096 44.5654C239.724 45.2873 233.851 58.9149 233.851 59.0581C233.851 59.1369 234.538 59.1728 235.378 59.1384L236.904 59.0754L237.61 57.4702L238.316 55.8649L241.662 55.8058L245.008 55.7468L245.788 57.4646L246.568 59.1825H248.14C249.55 59.1825 249.7 59.1431 249.592 58.8021C249.525 58.5928 248.089 55.2459 246.4 51.3644L243.328 44.307L241.811 44.2443C240.53 44.1914 240.264 44.2413 240.096 44.5654ZM251.395 51.6912V59.1825H252.889H254.383L254.44 54.0216L254.498 48.861L258.135 54.0182L261.772 59.1754L263.43 59.1788L265.088 59.1825V51.6912V44.2H263.591H262.093V49.2425C262.093 52.291 262.015 54.2363 261.894 54.1621C261.785 54.0946 260.132 51.8254 258.221 49.1196L254.747 44.2H253.071H251.395V51.6912ZM268.512 51.6985V59.231L272.202 59.1347C276.756 59.0159 277.768 58.7056 279.649 56.8518C281.322 55.2031 281.85 53.7828 281.733 51.2458C281.591 48.1712 280.26 46.1546 277.523 44.871C276.385 44.3372 276.112 44.3032 272.416 44.2366L268.512 44.166V51.6985ZM284.344 51.6912V59.1825H285.842H287.34V51.6912V44.2H285.842H284.344V51.6912ZM290.763 51.6912V59.1825H292.257H293.75L293.808 53.9942L293.865 48.8058L297.507 53.9407L301.15 59.0754L302.803 59.1379L304.456 59.2004V51.7002V44.2H302.958H301.46V49.3645V54.5289L297.808 49.3645L294.155 44.2H292.459H290.763V51.6912ZM213.674 47.5032C214.089 47.9859 214.178 48.2684 214.076 48.7831C213.843 49.9601 213.289 50.1829 210.584 50.1883L208.177 50.193V48.6235C208.177 47.76 208.249 46.9803 208.337 46.8906C208.426 46.8007 209.543 46.7626 210.82 46.8057C213.073 46.8814 213.158 46.902 213.674 47.5032ZM228.657 47.1963C229.715 47.8859 229.773 49.4073 228.77 50.1964C228.298 50.568 227.9 50.6211 225.585 50.6211H222.94V48.6727V46.7243L225.56 46.8057C227.367 46.8615 228.329 46.9831 228.657 47.1963ZM276.018 47.3489C277.862 48.1652 278.91 49.9496 278.737 51.9827C278.49 54.8917 276.62 56.3711 273.165 56.3906L271.507 56.4V51.554V46.7081L273.29 46.8194C274.373 46.887 275.443 47.0946 276.018 47.3489ZM242.855 50.7908L243.854 53.0825L241.82 53.1441C240.702 53.1779 239.744 53.1625 239.691 53.1096C239.638 53.057 240.06 51.9549 240.628 50.6606C241.196 49.3664 241.705 48.3506 241.759 48.4032C241.813 48.4561 242.306 49.5305 242.855 50.7908ZM21.9302 51.126C25.2138 52.0035 27.6377 54.4371 28.8367 58.0601C29.3108 59.493 29.3857 60.0945 29.3895 62.5C29.3934 64.9879 29.3313 65.4637 28.8033 66.9947C28.0857 69.0758 27.2727 70.3874 25.91 71.6626C22.2432 75.0936 16.2705 75.0125 12.7377 71.4835C7.58208 66.3334 8.59023 55.5569 14.5546 52.0602C16.5039 50.9175 19.6557 50.5183 21.9302 51.126ZM64.293 51.126C67.3913 51.9541 69.7752 54.2305 71.0007 57.5318C71.2536 58.2131 71.4605 58.815 71.4605 58.8695C71.4605 58.9239 67.1174 58.9684 61.8095 58.9684H52.1582L52.2952 58.3798C52.3703 58.056 52.7808 57.0736 53.2072 56.1962C54.4484 53.6424 56.5286 51.8577 59.0563 51.1782C60.5392 50.7797 62.9081 50.7559 64.293 51.126ZM106.046 51.1337C109.299 52.0001 111.71 54.4178 112.9 58.0053C113.397 59.5052 113.468 60.0626 113.468 62.5C113.469 64.9135 113.396 65.5023 112.92 66.9399C111.414 71.4938 107.946 74.1656 103.553 74.1572C99.6944 74.1497 96.6015 72.2249 94.9042 68.7744C91.9191 62.7063 93.9142 54.4195 98.9631 51.9145C101.133 50.8379 103.822 50.5414 106.046 51.1337ZM147.743 51.1651C151.173 52.0532 153.782 54.8985 154.791 58.8528C155.28 60.7702 155.223 64.479 154.673 66.4633C153.336 71.2891 149.787 74.1649 145.167 74.1649C139.251 74.1649 135.157 69.3939 135.157 62.5C135.157 60.0303 135.554 58.2221 136.544 56.186C137.317 54.5985 139.164 52.6216 140.524 51.9275C142.628 50.8535 145.406 50.5601 147.743 51.1651ZM213.091 53.2492C213.94 53.6788 214.298 54.4974 213.977 55.2727C213.596 56.1932 212.942 56.4 210.413 56.4H208.177V54.6877V52.9754L210.37 52.9786C211.693 52.9806 212.772 53.0878 213.091 53.2492ZM225.706 65.8824C223.488 66.5119 221.828 67.9412 220.822 70.0884C220.338 71.1196 220.265 71.5571 220.265 73.4203C220.265 75.4089 220.316 75.6683 220.963 76.9823C222.206 79.5094 224.468 80.998 227.346 81.1827C229.688 81.3329 231.055 80.8278 232.702 79.2037C234.196 77.7301 234.86 76.2753 235.071 74.0136L235.198 72.657L231.155 72.7153L227.112 72.7737L227.048 74.1114L226.984 75.4491H229.435C232.244 75.4491 232.312 75.5262 230.938 77.1325C230.048 78.1721 229.074 78.5229 227.409 78.4024C222.738 78.0644 221.537 71.0469 225.787 68.9281C227.164 68.2419 228.647 68.2105 229.947 68.8401C230.463 69.0899 230.998 69.4752 231.136 69.6963C231.346 70.0336 231.655 70.0982 233.051 70.0982H234.716L234.302 69.286C233.757 68.2186 232.139 66.7439 230.92 66.2045C229.695 65.6624 227.055 65.4993 225.706 65.8824ZM272.636 66.0369C271.653 66.3578 270.975 66.7766 270.047 67.636C264.994 72.3167 267.836 80.7465 274.615 81.1816C277.367 81.3584 279.871 80.2217 281.281 78.1547C281.671 77.5826 281.991 77.0289 281.991 76.924C281.991 76.8192 281.284 76.7333 280.419 76.7333C279.083 76.7333 278.787 76.8018 278.44 77.1916C277.365 78.4002 274.784 78.8165 273.243 78.0302C271.557 77.1693 270.571 75.4669 270.571 73.4158C270.571 69.0993 275.074 66.8289 278.277 69.5306C278.867 70.0283 279.137 70.0982 280.47 70.0982C281.306 70.0982 281.99 70.0259 281.99 69.9377C281.988 69.6083 281.147 68.4121 280.37 67.6351C278.538 65.8028 275.363 65.1465 272.636 66.0369ZM209.991 66.0391C209.546 66.7591 203.545 80.8034 203.641 80.8995C203.881 81.1399 206.416 81.0095 206.618 80.7465C206.731 80.5994 207.102 79.8266 207.443 79.0291L208.062 77.5794L211.45 77.6378L214.837 77.6965L215.53 79.3018L216.222 80.907L217.762 80.9699C218.912 81.0168 219.302 80.9627 219.301 80.7559C219.301 80.6035 217.875 77.2042 216.133 73.2018L212.965 65.9246L211.552 65.8616C210.673 65.8227 210.083 65.8897 209.991 66.0391ZM237.702 73.4158V81.0215L242.998 80.9642L248.293 80.907L248.357 79.5693L248.42 78.2316H244.559H240.698V76.5193V74.807H244.442H248.186V73.4158V72.0246H244.442H240.698V70.3123V68.6H244.559H248.42L248.357 67.2623L248.293 65.9246L242.998 65.8674L237.702 65.8101V73.4158ZM251.279 66.0866C251.222 66.2345 251.201 69.6295 251.232 73.6313L251.288 80.907H252.786H254.284L254.391 75.8817L254.498 70.8564L258.051 75.8817L261.604 80.907L263.239 80.9695L264.874 81.032V73.4248V65.8175H263.381H261.887L261.829 70.9784L261.772 76.139L258.135 70.9818L254.498 65.8246L252.94 65.8212C251.884 65.8186 251.349 65.9042 251.279 66.0866ZM282.847 65.946C282.847 66.0267 284.146 68.234 285.735 70.8512L288.623 75.6099V78.3121V81.014H290.121H291.619L291.619 78.3921L291.62 75.7702L294.507 70.9544C296.095 68.3057 297.394 66.0663 297.395 65.9781C297.395 65.8899 296.687 65.8175 295.822 65.8175H294.249L292.252 69.1379C291.153 70.964 290.176 72.379 290.079 72.282C289.982 72.1851 289.055 70.7151 288.018 69.0152L286.134 65.9246L284.49 65.8621C283.586 65.8276 282.847 65.8655 282.847 65.946ZM212.241 71.8105C212.62 72.6934 213.066 73.7289 213.231 74.1114L213.531 74.807H211.401H209.271L210.027 73.1482C210.443 72.236 210.92 71.1616 211.087 70.7609C211.255 70.3604 211.428 70.0715 211.472 70.1188C211.516 70.1663 211.862 70.9276 212.241 71.8105Z" fill="white"/>
</svg>
