<svg width="322" height="119" viewBox="0 0 322 119" fill="none" xmlns="http://www.w3.org/2000/svg">
<path fill-rule="evenodd" clip-rule="evenodd" d="M188.396 18.1892C175.832 19.7961 165.488 28.4016 162.12 40.0499C161.802 41.148 161.454 42.6715 161.346 43.4355C160.956 46.2056 160.962 46.1921 160.712 44.7685C160.223 41.9845 158.845 38.8189 157.131 36.5436C155.884 34.8881 153.225 32.4605 151.476 31.3806C149.709 30.2898 147.717 29.4566 145.309 28.8011L143.61 28.3388L131.148 28.2836L118.686 28.2284L118.808 29.5816C119.083 32.6269 119.934 35.4019 121.347 37.8577C124.535 43.3994 129.975 47.0016 136.713 48.0337C137.436 48.1443 148.32 48.208 166.693 48.2087C198.25 48.2102 197.366 48.2361 201.517 47.189C212.599 44.3935 221.263 35.8547 223.999 25.0317C224.388 23.4906 224.889 19.969 224.889 18.7724V18L207.21 18.022C197.487 18.0342 189.021 18.1094 188.396 18.1892ZM214.063 26.6163C214.063 26.9069 212.522 29.4468 211.624 30.6363C208.887 34.262 205.131 36.9408 200.732 38.4032C197.219 39.5715 197.266 39.5682 183.9 39.6483C176.662 39.6917 171.809 39.6571 171.809 39.5622C171.809 39.3141 173.052 37.1283 173.895 35.8956C174.995 34.2865 177.577 31.7919 179.455 30.5245C182.227 28.6544 185.762 27.2649 188.746 26.8726C189.562 26.7653 190.426 26.6498 190.666 26.6161C191.458 26.5048 214.063 26.505 214.063 26.6163ZM99.6476 41.2746C99.2842 41.3633 98.7628 41.551 98.4889 41.692C97.7576 42.0679 96.6459 43.4002 96.41 44.1833C96.2761 44.6276 96.2047 46.3907 96.2047 49.2488C96.2047 53.3442 96.1846 53.6267 95.8991 53.5388C95.731 53.4871 95.0244 53.2411 94.3289 52.9921C88.4754 50.897 81.6526 52.5336 77.2404 57.0909C75.4771 58.9122 74.2386 61.0295 73.4681 63.5399C73.0979 64.7464 73.0819 65.1121 73.0188 73.8192C72.9713 80.357 73.0115 83.1799 73.1643 84.0531C74.2145 90.0564 78.5851 94.7408 84.7864 96.51C85.9573 96.8441 86.5855 96.9038 88.9586 96.9069C91.3405 96.9102 91.9693 96.8517 93.2247 96.5107C98.2818 95.1365 102.29 91.6419 104.069 87.0565C105.147 84.2757 105.12 84.9142 105.069 63.5752C105.025 45.3647 105.003 44.0944 104.714 43.5686C103.751 41.8172 101.536 40.814 99.6476 41.2746ZM220.611 41.2034C219.51 41.4696 218.989 41.7319 218.286 42.3733C216.744 43.7812 216.865 41.9576 216.861 63.7773C216.858 79.7193 216.9 83.3009 217.105 84.3628C218.03 89.1719 221.43 93.4368 226.003 95.5251C228.453 96.6441 229.727 96.9017 232.834 96.9064C236.117 96.9114 237.579 96.6022 240.167 95.3551C244.187 93.4178 246.902 90.2942 248.397 85.8858L248.897 84.41V74.6873C248.897 65.0388 248.894 64.9539 248.493 63.5755C248.271 62.8116 247.681 61.4053 247.184 60.4503C246.41 58.9664 246.012 58.4487 244.445 56.8869C242.944 55.3907 242.311 54.8988 240.953 54.1705C238.172 52.6796 235.986 52.1339 232.834 52.1434C230.61 52.1502 228.587 52.523 226.926 53.232C226.462 53.4301 226.01 53.5923 225.922 53.5923C225.829 53.5923 225.762 51.759 225.762 49.2285C225.762 46.3594 225.691 44.6288 225.554 44.1758C225.286 43.2844 224.027 41.8977 223.181 41.5612C222.424 41.2598 221.126 41.0791 220.611 41.2034ZM244.114 41.3459C243.022 41.6942 242.046 42.7049 241.718 43.8282C241.276 45.3375 241.832 46.7947 243.19 47.6888C246.213 49.6799 250.09 46.6622 248.714 43.3889C247.993 41.6734 245.943 40.7629 244.114 41.3459ZM246.546 42.3503C247.948 43.0539 248.466 44.5805 247.767 45.9434C246.862 47.7071 244.833 48.0382 243.351 46.664C242.725 46.0837 242.636 45.8999 242.565 45.0545C242.449 43.6634 243.108 42.6035 244.357 42.1691C245.177 41.8845 245.705 41.9283 246.546 42.3503ZM243.863 42.77C243.799 42.8335 243.746 43.7711 243.746 44.8534C243.746 46.7053 243.767 46.8211 244.096 46.8211C244.398 46.8211 244.445 46.7053 244.445 45.953C244.445 44.7878 244.857 44.7889 245.625 45.9561C245.992 46.515 246.317 46.8211 246.541 46.8211C246.995 46.8211 246.981 46.6879 246.441 45.8976L245.992 45.241L246.441 44.8899C246.898 44.5322 247.049 43.6943 246.743 43.2153C246.469 42.7856 244.2 42.4347 243.863 42.77ZM245.924 43.5839C246.482 43.9897 246.14 44.3904 245.236 44.3904C244.473 44.3904 244.445 44.3716 244.445 43.8695C244.445 43.3957 244.497 43.3487 245.023 43.3487C245.34 43.3487 245.746 43.4546 245.924 43.5839ZM123.072 52.2011C116.593 53.002 111.289 57.409 109.449 63.5198C109.105 64.6626 109.06 65.273 108.998 69.5654L108.93 74.34L109.421 75.2937C109.967 76.3552 111.026 77.26 112.055 77.544C112.474 77.66 117.07 77.7237 125.015 77.7237C132.959 77.7237 137.555 77.66 137.975 77.544C139.002 77.2603 140.063 76.3551 140.598 75.306L141.078 74.3645V70.1347C141.078 65.3508 140.907 64.1002 139.946 61.8707C139.079 59.8605 138.346 58.7364 136.895 57.1953C135.472 55.6829 133.635 54.3569 131.844 53.5494C129.384 52.4402 125.708 51.8752 123.072 52.2011ZM158.452 52.2922C154.855 52.866 152.125 54.2474 149.533 56.8043C147.698 58.6152 146.894 59.8076 145.944 62.1275C144.919 64.6323 144.919 64.6254 144.921 79.7584L144.923 93.6119L145.336 94.48C146.105 96.0984 147.539 96.9899 149.372 96.9899C151.109 96.9899 152.551 96.1452 153.36 94.6537C153.735 93.9627 153.738 93.8896 153.825 79.9827L153.912 66.0062L154.464 64.8464C155.238 63.2225 156.231 62.2166 157.826 61.4412C159.097 60.8233 159.223 60.7976 160.983 60.7976C162.679 60.7976 162.904 60.8387 163.983 61.3471C165.606 62.1115 166.617 63.096 167.403 64.6759L168.055 65.9876L168.142 79.9735C168.238 95.3634 168.155 94.2514 169.307 95.6126C170.442 96.954 172.785 97.3908 174.525 96.5854C175.589 96.0926 176.583 94.9905 176.86 93.9953C177.009 93.459 177.048 89.4784 177.007 79.0278C176.952 64.8954 176.949 64.7817 176.564 63.5399C174.871 58.0702 170.626 54.0303 165.108 52.6386C162.958 52.096 160.486 51.9676 158.452 52.2922ZM195.009 52.2011C188.067 53.0593 182.564 57.9976 181.149 64.64C180.966 65.4959 180.894 67.037 180.891 70.0986L180.888 74.3645L181.369 75.306C181.904 76.3551 182.965 77.2603 183.992 77.544C184.412 77.66 189.008 77.7237 196.952 77.7237C204.896 77.7237 209.492 77.66 209.912 77.544C210.941 77.26 212 76.3552 212.546 75.2937L213.037 74.34L212.968 69.5654C212.907 65.243 212.863 64.6676 212.509 63.4887C211.262 59.3334 208.103 55.64 204.176 53.7465C201.551 52.4808 197.826 51.8528 195.009 52.2011ZM92.224 61.4615C93.7967 62.2136 94.79 63.2201 95.5648 64.8464L96.1174 66.0062L96.1741 73.9928C96.2143 79.6627 96.1712 82.2563 96.025 82.9342C95.4312 85.6907 93.1393 87.817 90.2168 88.3229C86.5267 88.962 82.8402 86.5246 82.0667 82.9342C81.9206 82.2563 81.8774 79.6627 81.9176 73.9928L81.9743 66.0062L82.527 64.8464C83.2285 63.3738 84.2275 62.2958 85.5304 61.6053C86.9211 60.8682 87.6492 60.7137 89.4157 60.7809C90.7177 60.8304 91.0964 60.9222 92.224 61.4615ZM128.048 61.3948C128.694 61.7014 129.507 62.2004 129.855 62.5036C131.335 63.7948 132.237 65.9803 132.138 68.04L132.086 69.1314H125.015H117.943L117.891 68.04C117.756 65.2168 119.231 62.7265 121.771 61.4912C123.153 60.8188 123.672 60.7165 125.377 60.7807C126.631 60.8281 127.064 60.9278 128.048 61.3948ZM200.13 61.4615C202.536 62.6121 203.936 64.7356 204.08 67.4499C204.139 68.5666 204.1 68.9447 203.916 69.0611C203.783 69.1446 200.649 69.2128 196.952 69.2128C193.255 69.2128 190.121 69.1446 189.989 69.0611C189.804 68.9447 189.766 68.5666 189.825 67.4499C189.886 66.281 190.01 65.759 190.449 64.828C191.343 62.9274 193.19 61.3834 195.162 60.8882C195.522 60.7977 196.494 60.7495 197.322 60.7809C198.624 60.8304 199.003 60.9222 200.13 61.4615ZM236.122 61.4608C237.637 62.2056 238.752 63.3201 239.504 64.8443L239.992 65.8326V74.5136V83.1947L239.454 84.3237C238.464 86.4006 236.477 87.8956 234.147 88.3158C230.653 88.9459 227.124 86.8102 226.096 83.4431C225.763 82.3554 225.748 81.888 225.797 74.152L225.849 66.0062L226.407 64.8358C227.318 62.9224 229.165 61.3792 231.13 60.8896C231.491 60.7997 232.466 60.7464 233.298 60.7712C234.642 60.8113 234.956 60.888 236.122 61.4608ZM112.878 81.8573C111.069 82.4795 110.011 83.7984 109.863 85.616C109.771 86.7452 110.249 88.0286 111.429 89.8265C116.956 98.245 129.364 99.4802 136.557 92.3277C137.899 90.993 139.326 88.9028 139.862 87.4843C140.577 85.596 139.992 83.5673 138.423 82.4919C135.962 80.8053 133.126 81.5524 131.571 84.2968C130.236 86.6515 128.544 87.9147 126.173 88.3252C123.046 88.8667 120.028 87.2572 118.374 84.1663C117.694 82.8971 116.847 82.1941 115.526 81.804C114.414 81.4757 113.962 81.4847 112.878 81.8573ZM185.166 81.6982C184.277 81.9295 183.606 82.3547 182.857 83.1633C181.267 84.8788 181.411 86.8484 183.344 89.7919C185.656 93.3145 189.387 95.8157 193.633 96.6896C195.786 97.1326 199.134 97.0451 201.23 96.4909C203.019 96.0178 205.441 94.8308 206.969 93.6776C209.42 91.8275 211.909 88.2429 212.098 86.2909C212.217 85.0606 211.882 84.0637 211.048 83.1643C209.994 82.0271 209.168 81.6543 207.685 81.6474C206.085 81.6401 204.81 82.2919 204.024 83.5195C202.445 85.9837 202.037 86.5048 201.271 87.0296C199.876 87.9854 198.639 88.3691 196.952 88.3691C195.265 88.3691 194.029 87.9854 192.634 87.0296C191.865 86.5027 191.367 85.8653 189.881 83.5055C189.004 82.1144 186.806 81.2717 185.166 81.6982Z" fill="white"/>
</svg>
