<svg width="322" height="119" viewBox="0 0 322 119" fill="none" xmlns="http://www.w3.org/2000/svg">
<path fill-rule="evenodd" clip-rule="evenodd" d="M170.428 39.202C166.61 39.7263 162.311 41.9944 159.389 45.026C155.492 49.0698 153.498 54.2494 153.485 60.3646C153.477 64.2197 154.023 66.8851 155.437 69.8807C157.457 74.1613 160.727 77.0862 165.544 78.9198C168.532 80.0574 174.093 80.349 177.408 79.5421C183.167 78.1406 187.832 73.8462 190.001 67.9494L190.635 66.2255H185.016H179.397L178.587 67.1339C176.406 69.5805 171.922 70.4098 169.007 68.9061C166.082 67.3969 164.765 64.3311 164.983 59.5433C165.142 56.0768 165.964 53.858 167.803 51.9357C170.867 48.7337 176.486 48.6339 179.571 51.7269L180.951 53.1109H186.462C192.612 53.1109 192.288 53.2796 191.478 50.499C190.426 46.8879 187.091 43.0146 183.473 41.202C179.809 39.3663 174.81 38.5998 170.428 39.202ZM33.8084 40.0825C33.7322 40.3199 33.4436 41.9893 33.1667 43.7925C32.8894 45.5958 32.398 48.7361 32.0743 50.7706L31.4854 54.4703L27.8165 54.5669L24.1473 54.6639L23.5704 58.2877C22.6597 64.0078 22.3574 63.4645 26.4512 63.4645C30.5247 63.4645 30.2598 63.0756 29.4714 67.9018C29.2032 69.5425 28.7452 72.4377 28.4535 74.3359C28.1616 76.2341 27.8519 78.1364 27.7654 78.5637L27.6077 79.3402L41.8948 79.3361C52.7578 79.333 56.5821 79.2215 57.8521 78.8705C63.705 77.2526 66.8538 73.2381 66.8221 67.4335C66.8054 64.3936 65.6108 61.5598 63.6646 59.9439L62.3491 58.852L63.3603 58.413C65.3065 57.5674 66.6931 56.1531 67.7494 53.9364C68.6944 51.953 68.7826 51.5022 68.6363 49.4025C68.2712 44.1694 65.1311 40.9263 59.5224 39.9896C56.3833 39.4657 33.9801 39.5465 33.8084 40.0825ZM77.2609 40.255C77.1627 40.5874 76.7671 42.9556 76.382 45.5181C75.9965 48.0807 75.4754 51.4974 75.2235 53.1109C74.9716 54.7243 74.4588 58.0634 74.084 60.531C73.7092 62.9986 73.0164 67.5025 72.5444 70.5396C72.0724 73.5766 71.5967 76.7991 71.4871 77.7009L71.288 79.3402H88.6992H106.11L106.286 78.5637C106.383 78.1364 106.734 76.0011 107.065 73.8182L107.667 69.8493L95.7162 69.7589C86.4019 69.6881 83.7946 69.5739 83.8988 69.2412C83.972 69.0062 84.2055 67.6882 84.4179 66.3118L84.8038 63.8097H91.1006C95.2863 63.8097 97.4734 63.6833 97.623 63.4335C97.8071 63.1256 99.0905 55.2993 99.1039 54.4051C99.1059 54.2629 96.232 54.1462 92.7175 54.1462H86.3274L86.5562 52.3343C86.6821 51.338 86.8679 50.1732 86.9694 49.7459L87.1542 48.9694H97.9367H108.72L109.092 46.8124C109.513 44.3706 110.125 40.2999 110.129 39.9099C110.13 39.7677 102.775 39.6511 93.7851 39.6511C78.5082 39.6511 77.4276 39.6904 77.2609 40.255ZM114.319 40.0825C114.185 40.5114 112.804 49.0567 112.804 49.4525C112.804 49.5664 115.897 49.6596 119.678 49.6596H126.553L126.359 50.6087C126.252 51.1305 125.64 55.0522 124.999 59.3231C124.357 63.594 123.683 67.9425 123.502 68.9865C123.32 70.0305 122.94 72.5154 122.656 74.5085C122.372 76.5016 122.059 78.4039 121.959 78.7362C121.792 79.295 122.2 79.3402 127.412 79.3402H133.047L133.816 74.2496C134.238 71.4497 134.864 67.3731 135.206 65.1902C136.031 59.9094 137.161 52.5611 137.395 50.9538L137.582 49.6596H144.379C150.56 49.6596 151.191 49.6051 151.355 49.0557C151.454 48.7233 151.768 46.8986 152.053 45.0005C152.337 43.1023 152.654 41.1223 152.757 40.6001L152.943 39.6511H133.698C118.596 39.6511 114.424 39.7439 114.319 40.0825ZM199.516 40.4276C199.431 40.8545 199.048 43.3007 198.664 45.8633C198.281 48.4258 196.995 56.8123 195.808 64.4999C194.619 72.1875 193.647 78.6717 193.646 78.9088C193.645 79.2367 194.967 79.3402 199.15 79.3402C204.591 79.3402 204.657 79.3312 204.809 78.5637C205.233 76.4156 210.681 40.8038 210.681 40.1808C210.681 39.7259 209.903 39.6511 205.175 39.6511C199.734 39.6511 199.668 39.66 199.516 40.4276ZM215.878 40.0825C215.808 40.3199 215.509 42.2222 215.214 44.3102C214.918 46.3982 214.587 48.4558 214.477 48.8831L214.278 49.6596H221.164C224.953 49.6596 228.052 49.7956 228.052 49.9616C228.052 50.1276 227.759 52.1076 227.4 54.3619C225.987 63.2564 224.062 75.811 223.848 77.5283L223.623 79.3402H229.136H234.649L234.818 78.3911C234.91 77.8693 235.942 71.1939 237.109 63.5577L239.232 49.6731L246.085 49.5802L252.938 49.4871L253.665 45.173C254.065 42.8003 254.403 40.5874 254.417 40.255C254.44 39.6866 253.313 39.6511 235.223 39.6511C220.139 39.6511 215.977 39.7439 215.878 40.0825ZM255.489 40.4276C256.049 41.5095 264.475 55.7034 266.869 59.5981C268.051 61.5212 268.772 63.0421 268.668 63.3945C268.502 63.9567 267.437 70.8153 266.783 75.5438C266.612 76.7777 266.393 78.1364 266.296 78.5637L266.121 79.3402H272.14C275.451 79.3402 278.159 79.208 278.159 79.0465C278.159 78.885 278.696 75.1998 279.351 70.8571C280.536 63.0035 280.549 62.9534 281.773 61.4059C282.985 59.8735 289.652 51.681 295.641 44.3647C297.325 42.3071 298.824 40.4045 298.971 40.137C299.197 39.7263 298.208 39.6511 292.569 39.6511H285.9L283.131 43.016C281.608 44.8666 279.752 47.0798 279.007 47.934C278.261 48.7882 277.189 50.0734 276.625 50.7899L275.599 52.0924L271.993 45.8719L268.388 39.6511H261.737H255.086L255.489 40.4276ZM54.7872 48.9469C57.1573 49.5154 57.7619 51.7041 56.0406 53.4825L55.0641 54.4913H48.7302H42.3962L42.8565 51.9892C43.1094 50.6129 43.388 49.2931 43.4752 49.0557C43.6649 48.5397 52.7261 48.4531 54.7872 48.9469ZM53.0127 63.8428C54.4632 64.1641 54.8002 64.395 55.2539 65.3776C55.938 66.8595 55.5388 68.4623 54.2347 69.469C53.3665 70.1396 52.7886 70.2031 46.6073 70.307C40.2609 70.4139 39.9282 70.3874 40.0989 69.7893C40.1978 69.4428 40.4544 67.8776 40.6692 66.3118L41.0593 63.4645H46.1823C48.9997 63.4645 52.0737 63.6347 53.0127 63.8428Z" fill="white"/>
</svg>
