<svg width="322" height="119" viewBox="0 0 322 119" fill="none" xmlns="http://www.w3.org/2000/svg">
<path fill-rule="evenodd" clip-rule="evenodd" d="M161.366 22.3008C148.296 23.5242 137.29 25.889 126.993 29.686C113.141 34.7938 102.008 41.606 92.6434 50.7028L89.6662 53.595L89.1284 52.8437C87.9261 51.1639 84.4146 47.8424 82.522 46.595C78.6604 44.0499 73.9658 42.1236 69.6096 41.2972C66.4556 40.6989 62.1763 40.7467 59.4085 41.4116C57.3416 41.908 55.3796 42.6956 55.1035 43.1396C54.868 43.5187 56.6444 46.8595 58.1477 48.8647C59.6359 50.8496 62.0484 53.1237 64.2973 54.6621C65.6548 55.5905 70.1769 57.8734 71.1301 58.111C71.9946 58.3269 72.0082 58.6267 71.1631 58.8375C69.9457 59.1413 65.8553 61.2046 63.9215 62.4906C61.6703 63.9876 58.9948 66.5152 57.4784 68.5778C56.2197 70.2897 54.8322 73.1173 55.0166 73.5951C55.1831 74.0266 56.9693 74.857 58.8623 75.3832C61.1506 76.019 66.3871 76.1528 69.297 75.6496C77.4384 74.242 86.2456 69.0744 89.2752 63.9273C89.5788 63.4116 89.9317 62.9892 90.0594 62.9882C90.1874 62.9869 91.7176 64.3713 93.46 66.0639C97.1877 69.6854 99.8122 71.8962 103.885 74.846C114.48 82.5184 128.062 88.8358 141.592 92.3851C162.463 97.8598 186.218 98.4896 207.59 94.1349C222.593 91.0779 236.797 85.2581 248.641 77.316C253.143 74.2971 255.758 72.2395 260.432 68.0381C262.312 66.3479 266.792 61.5226 266.994 60.9697C267.177 60.4696 263.197 55.6511 259.864 52.3384C247.914 40.4592 232.118 31.7548 213.132 26.5854C206.962 24.9055 199.131 23.5061 190.335 22.5119C185.338 21.947 166.605 21.8105 161.366 22.3008ZM137.555 33.5316C138.051 33.6901 138.567 34.0818 138.748 34.4371C139.08 35.0915 139.181 37.8938 138.908 38.9066C138.758 39.4653 138.679 39.4853 137.337 39.3078C133.39 38.7856 132.555 39.5682 132.455 43.8789L132.398 46.3326L136.176 46.4578L139.955 46.583V48.504C139.955 50.2055 139.883 50.5027 139.325 51.1033C138.333 52.1713 137.322 52.4681 134.673 52.4681H132.272V63.3618C132.272 76.4277 132.63 75.2572 128.631 75.2572C127.17 75.2572 125.713 75.128 125.357 74.9665L124.715 74.676V63.5719V52.4681L123.393 52.4386C122.665 52.422 121.973 52.426 121.855 52.4471C121.737 52.4681 121.428 52.4188 121.17 52.3371C119.963 51.9562 119.837 47.1485 121.015 46.4042C121.18 46.3 122.08 46.2134 123.015 46.2111L124.715 46.2074L124.717 44.7674C124.72 42.4461 125.364 38.8387 126.008 37.5365C126.772 35.9903 128.246 34.5178 129.644 33.903C131.733 32.9844 135.316 32.8161 137.555 33.5316ZM149.334 33.4462C150.087 33.9215 150.664 35.4321 150.647 36.8838C150.612 39.751 149.553 40.6979 146.378 40.6979C143.022 40.6979 141.921 39.5479 142.167 36.3018C142.376 33.5526 143.304 32.867 146.63 33.0032C147.901 33.0555 149 33.2353 149.334 33.4462ZM227.905 45.3464C230.521 45.8835 232.3 46.7816 234.025 48.4359C236.416 50.7296 237.486 53.59 237.741 58.3642C238.124 65.5578 235.424 71.0926 230.413 73.389C227.813 74.5803 226.047 74.8508 221.867 74.6978L218.296 74.5668L217.808 75.6006C217.526 76.1988 216.116 77.8134 214.462 79.4316C212.889 80.97 211.692 82.2725 211.8 82.3259C211.909 82.3795 213.529 82.4538 215.399 82.4914C217.269 82.5287 218.894 82.6494 219.008 82.7596C219.372 83.1082 219.498 84.9301 219.197 85.4888C218.913 86.0159 218.793 86.0257 212.544 86.0257C207.93 86.0257 206.096 85.9431 205.877 85.7252C205.71 85.5594 205.575 84.7625 205.575 83.9481V82.4716L208.692 79.3027C210.407 77.5597 212.012 75.7393 212.259 75.2572C212.875 74.0539 212.882 72.4454 212.274 71.7775C211.582 71.0167 209.639 71.0648 207.863 71.8869C206.196 72.6583 205.953 72.4932 205.953 70.59C205.953 69.3887 206.045 69.1247 206.644 68.6123C207.024 68.2873 207.959 67.8257 208.722 67.5866C209.485 67.3476 210.108 67.0316 210.106 66.8846C210.105 66.7376 209.941 66.0119 209.743 65.2718C209.178 63.1632 209.023 60.3153 209.333 57.78C209.834 53.6912 210.994 51.0301 213.231 48.8416C214.666 47.4372 215.514 46.902 218.026 45.8177C220.068 44.9354 224.804 44.7095 227.905 45.3464ZM169.689 46.3433C172.004 46.9389 173.306 47.6478 173.506 48.4214C173.845 49.7291 173.712 52.4473 173.289 52.8683C172.929 53.2259 172.818 53.2272 172.143 52.8803C169.403 51.4714 165.787 50.8423 163.931 51.4516C161.315 52.3098 161.339 55.3751 163.972 56.7029C164.479 56.9581 166.083 57.6462 167.538 58.2322C172.009 60.0326 174.129 61.8667 174.869 64.5746C175.283 66.0897 175.021 69.4235 174.392 70.6363C172.582 74.1305 168.828 76.002 163.634 76.0005C159.919 75.9995 155.635 74.7899 154.97 73.5543C154.524 72.7249 154.365 70.4492 154.674 69.3095C154.904 68.4598 155.076 68.2452 155.526 68.2452C155.837 68.2452 156.317 68.4032 156.595 68.5963C157.578 69.281 160.381 70.2697 161.979 70.4955C165.993 71.063 168.724 68.9965 167.455 66.3514C166.949 65.2949 166.43 64.9628 163.217 63.6393C159.578 62.1405 158.585 61.5998 157.29 60.4127C155.282 58.5728 154.509 56.1159 154.986 53.0942C155.5 49.8418 157.615 47.6754 161.492 46.4292C163.295 45.85 167.597 45.8049 169.689 46.3433ZM149.322 47.0022L149.905 47.5469V61.0085C149.905 76.1182 150.042 75.0934 147.977 75.4012C146.51 75.6201 143.141 75.3494 142.689 74.9762C142.41 74.7463 142.352 72.4472 142.369 62.3921C142.381 55.6253 142.473 49.4264 142.575 48.6165C142.825 46.6188 143.097 46.4578 146.221 46.4578C148.46 46.4578 148.804 46.5181 149.322 47.0022ZM185.008 47.4387C185.68 47.5484 186.339 47.7953 186.471 47.9872C186.611 48.1898 186.679 50.384 186.634 53.2194L186.556 58.1028L190.72 58.1711L194.884 58.2395L194.956 53.1625C194.996 50.2686 195.133 47.9779 195.275 47.8351C195.64 47.4665 200.467 47.3593 201.594 47.6949L202.552 47.9804V61.6188C202.552 74.9234 202.54 75.2695 202.048 75.7581C201.606 76.1981 201.209 76.2589 198.785 76.2589C197.24 76.2589 195.746 76.132 195.39 75.9704L194.753 75.682L194.685 70.2043L194.617 64.7266L190.587 64.6971L186.556 64.6675L186.489 70.195L186.421 75.7223L185.518 76.0188C184.325 76.4102 179.836 76.2402 179.281 75.7824C178.915 75.4804 178.874 74.0727 178.877 61.8913C178.88 54.4357 178.978 48.184 179.097 47.9979C179.535 47.3107 182.505 47.0298 185.008 47.4387ZM222.176 50.7156C219.9 51.1035 218.871 51.9955 217.556 54.722C217.051 55.7685 216.857 56.6408 216.747 58.3532C216.455 62.907 217.576 66.6735 219.645 68.0917C222.112 69.7821 226.074 69.4217 228.029 67.3291C229.727 65.5117 230.376 63.025 230.2 59.0083C230.06 55.8329 229.601 54.2171 228.387 52.6354C227.179 51.0609 224.681 50.2889 222.176 50.7156Z" fill="white"/>
</svg>
