<svg width="322" height="119" viewBox="0 0 322 119" fill="none" xmlns="http://www.w3.org/2000/svg">
<path fill-rule="evenodd" clip-rule="evenodd" d="M65.409 4.24279C64.54 4.6011 63.7643 5.58776 62.3051 8.19002C57.827 16.1755 50.1217 23.8263 42.0509 28.3019C40.676 29.0643 39.2542 30.0397 38.8912 30.4691C36.8465 32.8884 38.5453 36.5748 41.7031 36.572C43.4228 36.5706 44.4829 35.7647 45.8359 33.4302C51.4415 23.7575 58.2918 16.9455 67.8179 11.5704C69.7405 10.4854 70.5819 9.50744 70.8128 8.08913C71.0157 6.84224 70.2248 5.19096 69.0959 4.50471C68.1979 3.95868 66.4066 3.83138 65.409 4.24279ZM79.1982 5.34749C77.9636 6.09838 76.8862 7.49702 75.3154 10.3887C72.7867 15.0444 68.8724 19.7762 61.3241 27.3017C53.7246 34.8783 48.985 38.7682 44.3279 41.2508C41.1411 42.9495 39.5025 44.4479 39.0707 46.0576C38.1935 49.3287 40.9088 52.2058 44.3482 51.6494C46.2378 51.3436 47.161 50.2811 50.4135 44.6688C52.4038 41.2347 56.3142 36.5248 61.8856 30.8507C69.7868 22.8042 75.0191 18.4141 80.3482 15.36C81.8985 14.4714 83.5068 13.5041 83.922 13.2105C85.9278 11.7921 86.5178 8.64668 85.1298 6.77114C83.738 4.89027 81.0224 4.23858 79.1982 5.34749ZM54.5178 6.19336C54.1443 6.48619 53.1442 7.90422 52.2953 9.34445C50.2835 12.7569 47.0488 16.0502 44.0305 17.7579C40.6779 19.6551 39.8997 20.3945 39.8997 21.6833C39.8997 22.5406 40.0778 22.9026 40.7966 23.5057C42.2812 24.7512 43.8693 24.1205 45.043 21.8195C47.334 17.3283 51.0251 13.6047 55.6399 11.1287C58.3349 9.6828 58.9573 8.03742 57.3974 6.48225C56.443 5.53071 55.4852 5.4346 54.5178 6.19336ZM92.171 9.84411C90.6551 10.5306 89.3886 12.0586 87.5621 15.4044C80.6301 28.1015 62.0322 46.6208 49.3435 53.4611C44.7591 55.9324 42.9363 58.2913 43.4648 61.0678C44.1641 64.7408 48.2059 66.7725 51.468 65.0909C52.7113 64.4499 54.0973 62.6758 55.8869 59.4342C60.5769 50.9407 70.1199 40.0823 81.1938 30.6397C86.3388 26.2524 89.2395 24.1905 93.9713 21.5565C97.4346 19.629 98.7211 18.5619 99.4125 17.0447C101.489 12.4882 96.746 7.77242 92.171 9.84411ZM97.5045 23.9044C96.3923 24.5806 95.5788 25.6695 93.8504 28.7962C91.1213 33.7332 86.3027 39.4758 78.4794 47.1148C71.4743 53.9546 67.1614 57.3862 62.0951 60.1514C60.8923 60.8076 59.4796 61.7479 58.9553 62.2408C56.5236 64.5272 57.1183 68.4682 60.0926 69.78C62.8722 71.0058 65.3495 69.6294 67.3971 65.7218C70.0379 60.6823 74.5938 55.0621 82.0281 47.6735C89.3743 40.3728 94.5954 36.1258 99.4962 33.4648C103.262 31.4201 104.448 30.0231 104.448 27.6311C104.448 26.3336 103.577 24.9195 102.215 24.0042C100.989 23.1805 98.7724 23.1336 97.5045 23.9044ZM100.053 38.7907C98.8558 39.3362 98.6619 39.5894 95.9424 44.1607C91.6963 51.299 84.0627 58.7027 76.9657 62.5668C73.519 64.4434 72.601 65.4481 72.5995 67.345C72.5976 70.1664 75.4882 71.9877 77.9517 70.7175C78.9405 70.2077 79.6926 69.2177 81.4743 66.0804C85.3229 59.3036 93.7872 50.8375 100.22 47.3307C104.288 45.1131 105.291 44.0806 105.293 42.1093C105.295 39.3201 102.615 37.6225 100.053 38.7907ZM99.731 51.3344C99.3931 51.5704 98.3964 52.9929 97.5158 54.4958C95.459 58.0069 92.0219 61.4548 88.7894 63.2491C87.5573 63.9331 86.2706 64.7394 85.9298 65.0409C85.0811 65.7915 84.866 66.9757 85.3937 67.993C85.8827 68.9358 86.3388 69.1716 87.6749 69.1716C88.7784 69.1716 89.4791 68.4516 91.0037 65.7505C93.1395 61.9668 96.4041 58.7595 100.281 56.6353C102.756 55.2796 103.377 54.6012 103.377 53.2554C103.377 51.3689 101.271 50.2592 99.731 51.3344ZM275.923 71.1503C273.757 71.5774 271.908 72.57 270.623 73.9956C269.006 75.788 268.383 77.6349 268.561 80.1087C268.794 83.35 270.243 85.4714 273.223 86.9336C275.012 87.8109 275.274 87.8595 278.217 87.8595C280.553 87.8595 281.654 87.7319 282.661 87.3444L284 86.8296V84.3234C284 82.9453 283.956 81.8176 283.903 81.8176C283.85 81.8176 283.057 82.0753 282.142 82.39C279.504 83.2971 277.576 83.3994 276.024 82.7146C272.911 81.3418 272.79 77.7026 275.811 76.3441C277.367 75.645 280.26 75.8641 282.406 76.8435L284 77.5711V74.9553V72.3393L282.802 71.8902C280.157 70.8988 278.242 70.6928 275.923 71.1503ZM108.444 72.6141C108.273 73.4254 107.495 76.9981 106.715 80.553C105.935 84.1079 105.296 87.1747 105.295 87.3677C105.294 87.6226 105.984 87.719 107.807 87.719H110.321L110.603 86.3842C110.758 85.6499 111.297 82.8995 111.8 80.272C112.491 76.6614 112.768 75.6663 112.934 76.1972C113.055 76.5836 113.482 79.176 113.883 81.9581C114.284 84.7402 114.668 87.1747 114.736 87.3677C114.828 87.6302 116.075 87.719 119.669 87.719C123.274 87.719 124.505 87.6311 124.582 87.3677C124.639 87.1747 125.026 84.7402 125.442 81.9581C125.859 79.176 126.293 76.5883 126.407 76.2075C126.56 75.7006 126.86 76.7915 127.53 80.2824C128.033 82.9043 128.573 85.6499 128.731 86.3842L129.018 87.719H131.672C133.132 87.719 134.326 87.6243 134.325 87.5083C134.324 87.3922 133.876 85.2109 133.329 82.6606C132.172 77.2659 130.944 71.3872 130.944 71.2405C130.944 71.1846 129.002 71.1388 126.629 71.1388H122.314L121.242 76.8294C120.653 79.9592 120.08 82.8315 119.97 83.2123C119.757 83.9486 119.693 83.6692 118.1 75.1433L117.352 71.1388H113.053H108.754L108.444 72.6141ZM137.145 79.4241V87.719H144.192H151.239V85.6114V83.5037H146.588H141.937V82.5201V81.5366H146.447H150.957V79.4289V77.3212H146.447H141.937V76.4852V75.6492L146.517 75.5719L151.098 75.4946V73.3869V71.2793L144.122 71.2042L137.145 71.1289V79.4241ZM152.648 73.5275V75.9161H155.32H157.992L158.068 81.7473L158.145 87.5785L160.611 87.6597L163.077 87.7409V81.8285V75.9161H165.755H168.433V73.5275V71.1388H160.54H152.648V73.5275ZM173.227 71.7711C172.497 73.4951 167.305 87.2646 167.305 87.4757C167.305 87.6094 168.422 87.719 169.786 87.719H172.268L172.775 86.3139L173.281 84.9088H176.895H180.508L180.976 86.3139L181.444 87.719H184.099C185.56 87.719 186.754 87.6342 186.754 87.5302C186.754 87.4265 186.453 86.573 186.084 85.6333C185.715 84.6938 184.301 81.0481 182.94 77.532L180.466 71.1388H176.98C173.633 71.1388 173.484 71.1638 173.227 71.7711ZM196.902 72.1223V73.1059L194.576 73.1087C192.737 73.1107 191.956 73.2481 190.841 73.766C187.137 75.4859 186.231 80.8613 189.113 84.0227C190.257 85.2781 191.798 85.844 194.435 85.977L196.902 86.1017V86.9102V87.719H199.439H201.976V86.9102V86.1017L204.442 85.977C209.082 85.7429 211.365 83.5832 211.365 79.4289C211.365 77.4862 210.852 76.1128 209.702 74.9767C208.355 73.6463 207.363 73.281 204.653 73.118L202.116 72.9654L202.028 72.0521L201.94 71.1388H199.421H196.902V72.1223ZM213.814 79.4075V87.719H216.21H218.606V85.7519V83.7847H220.847C225.08 83.7847 227.236 82.8276 228.48 80.3964C229.633 78.1421 229.062 74.5237 227.301 72.928C225.634 71.4181 225.019 71.2852 219.24 71.1877L213.814 71.0958V79.4075ZM235.643 72.1181C235.417 72.6568 234.331 75.4707 233.23 78.3708C232.129 81.2713 230.925 84.4375 230.554 85.4071C230.184 86.3766 229.881 87.2933 229.881 87.4445C229.881 87.6024 230.934 87.719 232.362 87.719H234.843L235.35 86.3139L235.857 84.9088H239.427H242.996L243.497 86.3139L243.997 87.719H246.664C248.13 87.719 249.33 87.6752 249.33 87.6215C249.33 87.5296 248.236 84.648 245.634 77.8833C245.009 76.2604 244.176 74.0788 243.781 73.0357L243.063 71.1388H239.558H236.053L235.643 72.1181ZM251.303 79.4289V87.7409L253.769 87.6597L256.236 87.5785L256.311 84.9088C256.447 80.1126 256.139 80.1846 259.427 84.1821L262.337 87.719H265.417C267.111 87.719 268.497 87.6429 268.497 87.5496C268.497 87.4563 266.988 85.52 265.144 83.2468L261.79 79.1139L262.8 77.8664C263.356 77.1802 264.738 75.5157 265.872 74.1673C267.006 72.819 267.933 71.5862 267.933 71.4274C267.933 71.2495 266.871 71.1388 265.166 71.1388H262.398L259.461 74.7721C257.846 76.7701 256.483 78.3638 256.432 78.3135C256.382 78.2632 256.317 76.66 256.288 74.7507L256.236 71.2793L253.769 71.1981L251.303 71.1169V79.4289ZM178.001 77.9311C178.475 79.271 178.862 80.4409 178.862 80.5305C178.862 80.6201 177.974 80.6935 176.889 80.6935C175.804 80.6935 174.915 80.5988 174.914 80.4827C174.91 79.8901 176.772 75.1251 176.941 75.2956C177.05 75.405 177.527 76.5909 178.001 77.9311ZM240.45 77.7428C240.888 78.9793 241.302 80.1492 241.372 80.3422C241.465 80.6022 240.976 80.6935 239.495 80.6935C238.393 80.6935 237.49 80.5988 237.487 80.4827C237.477 79.9297 239.326 75.1079 239.48 75.2883C239.576 75.4019 240.013 76.5063 240.45 77.7428ZM223.398 76.1972C223.708 76.5063 223.961 77.0753 223.961 77.4617C223.961 78.7896 223.076 79.2884 220.72 79.2884H218.606V77.4617V75.6351H220.72C222.458 75.6351 222.934 75.7352 223.398 76.1972ZM196.902 79.4289V81.5366H195.516C193.718 81.5366 193.306 81.3601 192.793 80.3703C191.967 78.7772 193.347 77.3336 195.704 77.3255L196.902 77.3212V79.4289ZM205.636 78.0199C206.412 78.7207 206.387 80.22 205.587 80.9636C205.126 81.391 204.59 81.5366 203.473 81.5366H201.976V79.3941V77.2515L203.522 77.3794C204.473 77.4581 205.286 77.7043 205.636 78.0199ZM106.269 98.4667C106.193 98.6645 106.164 102.429 106.205 106.832L106.28 114.838H108.676H111.072L111.148 108.866L111.224 102.894H115.599H119.974L119.892 100.576L119.81 98.2573L113.109 98.182C107.866 98.123 106.377 98.1848 106.269 98.4667ZM121.642 106.528V115L124.109 114.919L126.575 114.838V112.87V110.903L129.676 110.763C133.44 110.592 134.817 109.98 136.103 107.904C137.59 105.506 137.132 101.753 135.125 99.8867C133.668 98.5319 132.549 98.2978 126.927 98.1733L121.642 98.0561V106.528ZM137.428 98.458C137.429 98.6566 138.095 99.831 138.908 101.068C142.062 105.864 143.91 108.841 143.91 109.127C143.91 109.454 142.139 112.475 141.323 113.541C140.324 114.844 140.57 115.006 143.413 114.919L146.016 114.838L149.893 108.655C152.025 105.255 154.334 101.594 155.024 100.521C155.713 99.4474 156.215 98.4672 156.137 98.343C155.962 98.0603 151.486 98.0505 151.087 98.3318C150.927 98.4453 149.975 99.8347 148.974 101.419C147.972 103.003 147.089 104.297 147.011 104.294C146.933 104.291 145.982 102.932 144.897 101.273L142.924 98.2573L140.175 98.1769C138.081 98.1157 137.427 98.1826 137.428 98.458ZM157.287 98.4672C157.211 98.6648 157.183 102.429 157.224 106.832L157.299 114.838H159.695H162.091L162.167 108.866L162.243 102.894H165.332H168.422L168.498 108.866L168.574 114.838H170.97H173.366L173.309 106.547L173.252 98.2573L165.339 98.1826C159.12 98.1241 157.396 98.1848 157.287 98.4672ZM177.189 98.5161C176.937 98.8191 176.873 100.973 176.94 106.881L177.03 114.838H179.426H181.822L181.898 108.866L181.974 102.894H185.063H188.153L188.229 108.866L188.305 114.838H190.701H193.097V106.547V98.2573L185.313 98.1826C178.787 98.1202 177.474 98.1741 177.189 98.5161ZM130.958 103.042C132.061 103.61 132.182 104.838 131.232 105.809C130.556 106.501 127.071 106.825 126.679 106.232C126.434 105.861 126.401 103.263 126.636 102.824C126.843 102.438 130.105 102.602 130.958 103.042Z" fill="white"/>
</svg>
