<svg width="322" height="119" viewBox="0 0 322 119" fill="none" xmlns="http://www.w3.org/2000/svg">
<path fill-rule="evenodd" clip-rule="evenodd" d="M244.162 14.113C243.962 14.191 241.262 16.8325 238.161 19.9832C233.513 24.707 232.524 25.8314 232.524 26.3946C232.524 26.9086 232.899 27.4491 234.039 28.5791C234.873 29.405 235.81 30.1578 236.122 30.2523C236.621 30.4035 237.386 29.7138 242.517 24.4893C247.114 19.808 248.345 18.4205 248.345 17.9195C248.345 17.4561 247.886 16.831 246.646 15.6084C244.935 13.9208 244.825 13.8545 244.162 14.113ZM244.89 38.0532C244.823 38.1211 244.005 38.2407 243.071 38.3187C240.428 38.5391 239.326 38.7225 237.494 39.2453C232.804 40.5846 230.052 42.1989 226.684 45.5865C222.356 49.9389 220.578 53.6346 219.535 60.4436C219.096 63.3114 219.102 65.4394 219.559 68.554C220.335 73.845 221.841 77.5338 224.68 81.0976C228.909 86.406 234.213 89.4176 240.889 90.3024C245.328 90.8908 256.097 90.7825 256.73 90.1434C256.819 90.0531 256.931 88.9918 256.977 87.7849C257.043 86.0946 256.975 85.4554 256.682 85.0028L256.302 84.4155L249.686 84.2918C242.831 84.1639 240.567 84.0037 240.174 83.6181C240.047 83.4941 239.708 83.3925 239.419 83.3925C237.917 83.3925 233.587 80.997 231.464 78.9907C230.18 77.777 228.264 75.0256 227.608 73.4521C227.04 72.0886 226.22 68.9374 226.22 68.1186C226.22 67.4554 226.253 67.4385 227.614 67.4324C228.381 67.4287 234.899 67.3585 242.099 67.276C253.74 67.1427 255.224 67.0824 255.5 66.7302C255.892 66.2297 255.773 61.9126 255.356 61.4902C255.146 61.2781 251.327 61.2003 240.707 61.1917L226.341 61.18L226.389 60.1106C226.455 58.6499 227.331 55.8158 228.217 54.1934C230.265 50.4433 232.931 48.0468 236.888 46.3972C240.821 44.7584 243.394 44.3672 250.245 44.3672C253.633 44.3672 256.018 44.267 256.302 44.1131C256.719 43.8871 256.771 43.579 256.771 41.3205C256.771 39.328 256.69 38.7141 256.395 38.4667C256.123 38.238 254.506 38.1207 250.515 38.0401C247.488 37.9793 244.957 37.9849 244.89 38.0532ZM142.324 38.6962C139.24 39.3415 137.085 40.0668 134.945 41.1791C125.952 45.8545 120.537 55.01 120.705 65.2531C120.856 74.4972 125.417 82.4056 133.474 87.3944C135.346 88.5539 138.411 89.8432 140.263 90.2502C141.063 90.4261 142.1 90.6664 142.567 90.7842C143.965 91.1372 149.543 91.038 151.496 90.6257C158.058 89.2399 163.437 85.777 167.497 80.3245C168.771 78.6135 170.603 75.0752 171.183 73.2066C171.351 72.6667 171.575 72.004 171.68 71.734C172.072 70.7343 172.202 69.4254 172.313 65.3699C172.412 61.7295 172.363 60.9392 171.91 58.9884C169.909 50.3699 164.475 43.7482 156.63 40.3674C152.235 38.4734 146.559 37.8102 142.324 38.6962ZM74.0771 38.9046C72.0394 39.7582 71.31 41.1163 70.8137 44.9808C70.6578 46.1957 70.4323 47.9077 70.3125 48.7851C70.1927 49.6626 69.9742 51.3193 69.8271 52.4668C69.6796 53.6142 69.4624 55.2157 69.3445 56.0257C69.2265 56.8356 69.0094 58.4924 68.862 59.7073C68.7146 60.9222 68.4944 62.579 68.3725 63.3889C68.2507 64.1989 68.033 65.8004 67.8892 66.9479C67.7452 68.0953 67.5216 69.8348 67.3924 70.8136C67.2634 71.7924 67.0449 73.4491 66.9072 74.4952C66.6507 76.4438 66.11 80.3075 65.6963 83.1471C65.5685 84.0245 65.4155 85.2394 65.3566 85.8469C65.2974 86.4544 65.1726 87.5844 65.079 88.358C64.835 90.3721 65.0082 90.5103 67.7777 90.5103C69.0196 90.5103 70.2885 90.4129 70.5971 90.2941C71.2967 90.0246 71.5864 88.9896 72.1172 84.8652C72.3345 83.1777 72.5607 81.4658 72.6201 81.0608C72.7923 79.8851 73.9168 71.677 74.2005 69.525C74.3429 68.4451 74.5582 66.8435 74.6792 65.9661C75.1355 62.6548 75.8709 56.922 76.1277 54.6757C76.5719 50.7904 76.9485 48.3892 77.0321 48.9078C77.0758 49.1778 77.2166 49.7853 77.3454 50.2578C79.6673 58.7817 80.9599 63.3605 82.0932 67.0762C82.5472 68.5643 82.9184 69.9661 82.9184 70.1911C82.9184 70.4164 83.0275 70.6688 83.1609 70.7522C83.2942 70.8357 83.4033 71.1682 83.4033 71.4915C83.4033 71.8147 83.5064 72.3329 83.6322 72.6429C83.7583 72.9529 84.0968 74.035 84.3849 75.0475C84.6729 76.0599 84.9932 77.1644 85.0965 77.5019C85.1998 77.8394 85.532 78.9439 85.8341 79.9563C87.0845 84.1433 88.5219 88.3598 88.8958 88.9373C89.574 89.9851 90.4394 90.2649 93.0009 90.2649C96.8727 90.2649 97.2965 89.7492 99.1563 82.7789C99.2644 82.3739 99.7477 80.7172 100.231 79.0973C100.713 77.4773 101.329 75.3788 101.598 74.4338C102.206 72.301 103.27 68.7489 103.547 67.9296C103.661 67.5921 104.63 64.1682 105.7 60.3209C106.77 56.4736 107.745 52.9945 107.868 52.5895C107.99 52.1845 108.23 51.2457 108.4 50.5032C108.836 48.5971 109.041 48.5129 109.214 50.1684C109.296 50.96 109.469 52.4638 109.598 53.5099C110.218 58.5314 110.335 59.4786 110.574 61.364C110.715 62.4776 110.935 64.1069 111.062 64.9843C111.653 69.0513 112.316 73.7672 112.771 77.1337C113.044 79.1586 113.313 81.0363 113.369 81.3062C113.512 81.9967 113.867 84.2702 114.058 85.7242C114.376 88.1445 114.753 89.773 115.053 90.0251C115.237 90.1797 116.449 90.2538 118.112 90.2119L120.865 90.1422L120.948 89.2831C120.993 88.8106 120.907 87.5957 120.757 86.5833C120.405 84.2108 120.106 82.0406 119.792 79.5881C119.306 75.7963 119.012 73.6774 118.668 71.4885C118.476 70.2736 117.827 65.5795 117.225 61.0572C116.623 56.535 116.021 52.0618 115.887 51.1168C115.753 50.1719 115.537 48.5981 115.406 47.6193C114.598 41.5895 114.421 40.9494 113.225 39.7393C112.089 38.5897 110.473 38.2625 107.777 38.6366C106.91 38.7568 106.396 39.0158 105.708 39.6797C104.927 40.4342 104.664 40.9913 103.903 43.5081C102.453 48.3055 102.268 48.8872 102.044 49.3339C101.927 49.5683 101.832 49.8997 101.832 50.0703C101.833 50.2408 101.498 51.485 101.088 52.8349C100.677 54.1849 100.225 55.7311 100.084 56.2711C99.6589 57.8893 99.4402 58.6519 98.9574 60.1982C98.3723 62.0729 96.4495 68.5611 96.0119 70.1386C95.8807 70.6111 95.5655 71.7156 95.3116 72.593C95.0575 73.4705 94.6104 75.1272 94.318 76.2747C94.0258 77.4221 93.6871 78.6147 93.5656 78.9247C93.4441 79.2347 93.343 79.7317 93.3411 80.0292C93.3389 80.3267 93.2407 80.7245 93.1223 80.9135C92.8801 81.3008 92.9407 81.4871 90.5332 72.9612C89.6564 69.8563 88.8454 66.9847 88.7309 66.5797C88.1655 64.5808 87.9664 63.8288 87.8539 63.2662C87.7865 62.9287 87.6415 62.4317 87.5317 62.1617C87.2373 61.4389 86.9085 60.408 86.3564 58.4801C86.086 57.5351 85.5177 55.6023 85.0936 54.1849C84.6695 52.7674 84.1249 50.945 83.8837 50.1351C81.6827 42.7499 80.884 40.5407 80.1443 39.7919C78.8565 38.4883 76.0501 38.0777 74.0771 38.9046ZM178.438 39.2001C176.785 39.7079 176.006 40.4703 175.431 42.1405C175.105 43.0894 175.058 46.1466 175.058 66.2351C175.058 78.8894 175.124 89.4176 175.205 89.6311C175.328 89.9551 175.829 90.0194 178.227 90.0194C180.819 90.0194 181.127 89.9728 181.353 89.5462C181.522 89.2254 181.558 82.4002 181.462 68.3768C181.324 48.2218 181.332 47.7005 181.766 48.44C182.801 50.2075 184.029 52.1666 185.908 55.0547C187.009 56.7448 187.909 58.1718 187.909 58.2261C187.909 58.2803 188.673 59.4913 189.606 60.9173C190.54 62.3434 191.303 63.6118 191.303 63.736C191.303 63.8602 191.394 63.9984 191.504 64.0435C191.615 64.0885 192.294 65.0641 193.015 66.2115C193.735 67.359 194.405 68.4082 194.502 68.5432C194.6 68.6782 197.476 73.041 200.892 78.2382C204.308 83.4354 207.504 88.0566 207.993 88.5075C209.454 89.8543 210.104 90.0936 211.939 89.9605C214.639 89.7652 215.983 88.5902 216.524 85.9534C216.719 85.0001 216.775 78.1498 216.72 62.0289C216.652 42.2753 216.596 39.4112 216.278 39.2077C215.733 38.8587 210.86 38.9046 210.507 39.262C210.286 39.4863 210.215 44.4739 210.211 60.1859L210.206 80.8154L209.121 79.0973C206.82 75.4542 202.416 68.6348 198.638 62.8659C196.471 59.5566 194.698 56.7465 194.698 56.6214C194.698 56.4962 194.596 56.3938 194.472 56.3938C194.348 56.3938 194.177 56.1737 194.092 55.9044C194.008 55.6352 193.787 55.2614 193.602 55.0738C193.416 54.8861 193.069 54.3964 192.83 53.9858C192.436 53.3094 188.162 46.7958 187.727 46.208C187.627 46.073 187.007 45.1342 186.35 44.1217C184.52 41.3018 183.404 40.052 182.213 39.4851C181.11 38.9606 179.592 38.8459 178.438 39.2001ZM150.492 45.0782C151.534 45.3342 152.712 45.6727 153.11 45.8302C159.823 48.4889 164.477 54.3019 165.603 61.433C167.017 70.3929 162.653 78.978 154.704 82.8758C153.849 83.2951 152.957 83.6379 152.722 83.6379C152.487 83.6379 152.234 83.7361 152.161 83.8564C152.087 83.9764 151.617 84.1571 151.116 84.2577C149.892 84.5039 143.413 84.5134 142.223 84.2712C140.807 83.9828 137.731 82.6098 136.241 81.6015C133.978 80.0697 131.328 77.3124 130.297 75.4156C128.154 71.4716 127.537 69.4202 127.355 65.632C127.08 59.9204 129.172 54.4934 133.239 50.3672C137.834 45.7048 144.601 43.6306 150.492 45.0782Z" fill="white"/>
</svg>
